HIERARCHY
ROOT Hips
{
  OFFSET 148.815 91.189 9.18464
  CHANNELS 6 Xposition Yposition Zposition Zrotation Xrotation Yrotation
  JOINT ToSpine
  {
    OFFSET -2.69724 7.43032 -0.144315
    CHANNELS 3 Zrotation Xrotation Yrotation
    JOINT Spine
    {
      OFFSET -0.0310711 10.7595 1.96963
      CHANNELS 3 Zrotation Xrotation Yrotation
      JOINT Spine1
      {
        OFFSET 13.1342 3.43533 0.764692
        CHANNELS 3 Zrotation Xrotation Yrotation
        JOINT Neck
        {
          OFFSET 29.8703 7.82586 -0.130764
          CHANNELS 3 Zrotation Xrotation Yrotation
          JOINT Head
          {
            OFFSET 9.52751 0.295786 -0.907742
            CHANNELS 3 Zrotation Xrotation Yrotation
            End Site
            {
              OFFSET 16.4037 0.713936 2.7358
            }
          }
        }
        JOINT LeftShoulder
        {
          OFFSET 27.5574 4.95586 2.47156
          CHANNELS 3 Zrotation Xrotation Yrotation
          JOINT LeftArm
          {
            OFFSET 1.20734 -0.998971 20.1238
            CHANNELS 3 Zrotation Xrotation Yrotation
            JOINT LeftForeArm
            {
              OFFSET 26.8049 -0.0536703 -0.155908
              CHANNELS 3 Zrotation Xrotation Yrotation
              JOINT LeftHand
              {
                OFFSET 26.6817 0 0.320147
                CHANNELS 3 Zrotation Xrotation Yrotation
                End Site
                {
                  OFFSET 18.6119 0 0.382219
                }
              }
            }
          }
        }
        JOINT RightShoulder
        {
          OFFSET 27.5927 4.71444 -2.65209
          CHANNELS 3 Zrotation Xrotation Yrotation
          JOINT RightArm
          {
            OFFSET 2.83739 -1.17114 -18.7564
            CHANNELS 3 Zrotation Xrotation Yrotation
            JOINT RightForeArm
            {
              OFFSET 28.839 -0.0548439 1.22491
              CHANNELS 3 Zrotation Xrotation Yrotation
              JOINT RightHand
              {
                OFFSET 26.5114 0 -0.101894
                CHANNELS 3 Zrotation Xrotation Yrotation
                End Site
                {
                  OFFSET 18.2168 0 0
                }
              }
            }
          }
        }
      }
    }
  }
  JOINT LeftUpLeg
  {
    OFFSET -4.76168 -1.9167 -10.2353
    CHANNELS 3 Zrotation Xrotation Yrotation
    JOINT LeftLeg
    {
      OFFSET 2.55951 -42.0585 -8.02213
      CHANNELS 3 Zrotation Xrotation Yrotation
      JOINT LeftFoot
      {
        OFFSET 3.16357 -42.5282 -3.95426
        CHANNELS 3 Zrotation Xrotation Yrotation
        JOINT LeftToeBase
        {
          OFFSET 0.346054 -6.02161 12.8035
          CHANNELS 3 Zrotation Xrotation Yrotation
          End Site
          {
            OFFSET 0.134235 -1.35082 5.13018
          }
        }
      }
    }
  }
  JOINT RightUpLeg
  {
    OFFSET -4.94151 -1.41743 10.6446
    CHANNELS 3 Zrotation Xrotation Yrotation
    JOINT RightLeg
    {
      OFFSET -2.56294 -42.0364 -7.94377
      CHANNELS 3 Zrotation Xrotation Yrotation
      JOINT RightFoot
      {
        OFFSET -3.0952 -42.555 -4.02241
        CHANNELS 3 Zrotation Xrotation Yrotation
        JOINT RightToeBase
        {
          OFFSET -0.0828122 -6.13587 12.8035
          CHANNELS 3 Zrotation Xrotation Yrotation
          End Site
          {
            OFFSET -0.131328 -1.35082 5.13018
          }
        }
      }
    }
  }
}
MOTION
Frames:	12
Frame Time:	0.0333333
98.8883 96.3841 -3.13248 68.5867 -28.496 -12.1008 -70.1915 0 88.8779 51.0185 68.2847 30.5001 8.91966 20.7116 2.94279 -134.131 39.771 159.936 162.838 80.4654 -133.719 0.417465 -15.0398 -22.7779 -50.841 33.8281 -133.232 32.0253 -11.7703 -107.284 0.420956 0.000576806 0.35866 -1.46164 5.36721 42.0337 -117.746 -16.4516 82.0595 6.59704 -1.98691 73.3638 1.24873 0.0263242 0.63645 -58.2423 4.72757 100.368 -0.422975 25.4303 5.07271 -2.85069 -11.1782 -0.888534 2.44395 -5.65231 1.15944 -47.0354 -10.5731 81.0567 1.1272 15.5367 10.8518 -17.2639 14.6443 3.42193 2.4004 -19.7954 -4.06699 
98.9257 96.3515 -3.23959 68.7643 -28.671 -12.0593 -70.1915 0 88.8779 53.2429 68.3738 28.8532 7.96597 20.5446 2.51168 -131.755 38.8485 160.011 161.511 79.6229 -133.629 0.489479 -14.668 -22.1697 -51.3998 33.2605 -133.432 29.6176 -10.9652 -107.715 0.420956 0.000576806 0.35866 -1.47754 5.64946 40.9563 -120.15 -16.5294 83.1473 0.219437 -0.0877729 74.9779 1.15031 0.0262107 1.04305 -58.2294 4.65809 100.328 -0.421024 25.9147 5.22785 -2.93114 -11.6088 -0.932025 2.21827 -5.19476 1.20423 -47.1621 -10.6653 81.0074 1.10884 15.5533 10.5417 -17.1699 14.3302 3.37607 2.38397 -19.5227 -3.21261 
98.9644 96.2734 -3.3885 68.8822 -28.6619 -11.9131 -70.1915 0 88.8779 53.2492 68.3406 29.235 8.15001 20.629 2.31213 -129.748 38.0491 158.822 164.412 79.5777 -137.874 0.450333 -14.9894 -22.1551 -52.8671 32.7048 -133.535 28.7183 -10.584 -107.747 0.420956 0.000576806 0.35866 -1.29715 5.40364 38.9055 -123.368 -17.0615 84.4948 -0.256861 0.0337532 76.5362 1.10126 0.0261529 1.3251 -57.8946 4.83034 100.414 -0.563389 26.78 4.91825 -2.78003 -12.0959 -0.98766 2.17036 -5.19954 1.55496 -47.1338 -10.6764 80.9967 1.04298 15.7527 10.5076 -17.1386 14.2362 3.36166 2.36439 -19.3389 -3.35986 
98.9516 96.1535 -3.57959 69.0465 -28.6831 -11.7029 -70.1915 0 88.8779 54.2633 68.3434 28.8451 8.2316 20.659 1.75707 -128.352 36.8866 157.881 170.295 79.248 -144.613 0.448331 -15.0525 -22.0235 -54.1927 32.7364 -134.014 28.9061 -10.4427 -107.39 0.420956 0.000576806 0.35866 -1.22058 5.50233 37.0995 -126.005 -17.4515 85.928 1.37138 -0.331415 77.2066 1.11358 0.0261634 1.64047 -57.3223 5.00574 100.379 -0.643772 28.0861 4.81928 -2.69672 -12.6625 -1.04997 2.17244 -5.29377 1.8634 -46.8807 -10.6831 81.0132 0.952326 16.4455 10.8866 -17.1139 14.1671 3.35074 2.38055 -19.5723 -3.95958 
98.9414 95.981 -3.7738 69.6128 -28.6165 -11.2998 -70.1915 0 88.8779 56.6763 68.7105 26.8731 7.92504 20.7279 1.24099 -127.077 35.8817 157.11 174.088 78.8264 -148.869 0.45496 -15.0602 -21.8576 -54.9563 32.876 -134.861 29.0914 -10.1052 -106.726 0.420956 0.000576806 0.35866 -1.16115 5.49275 36.0757 -127.259 -16.8995 87.7449 3.08462 -0.714851 77.1956 1.17009 0.0262249 1.81732 -56.9478 5.14355 100.283 -0.726246 29.687 4.2346 -2.9632 -13.4496 -1.12964 1.93437 -5.10117 2.8513 -46.8924 -10.9042 80.8508 0.976229 17.355 10.8218 -17.0385 13.8308 3.30863 2.40985 -19.8877 -3.97662 
98.961 95.8495 -3.95267 70.0877 -28.7072 -10.901 -70.1915 0 88.8779 58.435 69.1864 25.4032 7.50437 20.8921 1.32989 -125.942 35.3327 157.343 173.165 78.3114 -147.748 0.373065 -15.5194 -22.3816 -56.1152 33.0909 -135.259 29.3686 -9.56558 -105.684 0.420956 0.000576806 0.35866 -1.13323 5.59024 35.1732 -127.49 -16.084 89.1633 4.90781 -1.15311 76.8806 1.25981 0.0263243 1.9467 -56.6978 5.46327 100.46 -0.888805 31.0241 3.47069 -2.57851 -13.7036 -1.16069 2.05738 -5.69872 4.09637 -46.8917 -10.9919 80.7477 0.993123 18.1629 10.7086 -17.1915 13.4564 3.32069 2.42071 -19.9495 -3.62386 
99.0065 95.748 -4.09236 70.3616 -28.878 -10.5178 -70.1915 0 88.8779 58.7333 69.2016 25.6123 7.93344 20.9524 1.00021 -125.117 34.5059 157.288 174.021 77.6446 -147.895 0.340156 -15.661 -22.6815 -57.0033 33.4061 -135.952 30.0219 -8.9844 -104.368 0.420956 0.000576806 0.35866 -1.17328 5.81986 34.9793 -126.87 -15.2449 90.7365 6.31885 -1.56736 76.1429 1.35435 0.0264316 1.90561 -56.4836 5.90743 100.66 -1.00644 32.0121 2.9453 -2.28853 -13.7636 -1.16929 2.44809 -6.64562 4.8219 -46.9095 -10.8151 80.7764 0.939993 18.6443 10.7245 -17.1285 13.4584 3.30535 2.44797 -20.2232 -3.5951 
99.0943 95.6631 -4.24056 70.6971 -29.1359 -10.224 -70.1915 0 88.8779 60.5546 69.3742 23.9878 7.48202 20.8666 0.911243 -124.024 33.6681 157.057 176.638 77.1489 -149.607 0.334702 -15.7305 -22.6123 -57.5152 34.0571 -136.328 31.5414 -8.85335 -103.332 0.420956 0.000576806 0.35866 -1.23781 5.89999 35.7673 -125.363 -14.4073 92.6896 7.18008 -1.96738 74.7641 1.44837 0.0265387 1.83603 -56.6135 6.17166 100.869 -1.08691 32.6371 2.57722 -2.52134 -14.1921 -1.21181 2.53079 -6.86664 5.07209 -47.0205 -10.7539 80.707 0.96816 19.0309 11.2041 -16.7046 13.3929 3.19725 2.43275 -20.2383 -4.53161 
99.209 95.6147 -4.32826 70.9045 -29.3753 -10.0101 -70.1915 0 88.8779 60.6159 69.2304 23.7676 7.67249 20.6096 1.26402 -123.773 33.4343 157.74 174.637 76.6316 -146.96 0.340418 -15.7248 -22.5124 -58.1474 34.7415 -136.287 31.9494 -8.60576 -102.753 0.420956 0.000576806 0.35866 -1.32759 6.16061 36.2429 -123.692 -14.3157 93.876 7.72992 -2.28531 73.6346 1.52064 0.0266211 1.76952 -56.7588 6.51608 101.381 -1.13817 33.0489 2.32648 -2.36092 -14.7262 -1.26832 2.2851 -6.35195 4.89254 -47.0544 -10.6684 80.7094 0.908443 19.3879 11.2598 -16.2344 13.2588 3.07392 2.45041 -20.3378 -4.06594 
99.3168 95.5082 -4.43155 70.9019 -29.8569 -10.0419 -70.1915 0 88.8779 60.1334 69.2224 24.093 7.91901 20.5775 1.60247 -123.749 33.3063 157.875 174.589 76.45 -146.368 0.32838 -15.924 -22.2538 -58.7862 35.3284 -136.507 32.0137 -8.38763 -102.397 0.420956 0.000576806 0.35866 -1.3729 6.22649 36.7221 -122.053 -14.4831 94.6891 8.3956 -2.59628 72.9337 1.52947 0.0266335 1.56856 -56.8175 6.62446 101.536 -1.14447 33.4526 2.43281 -2.99367 -15.779 -1.3845 1.91064 -5.67603 5.05471 -46.871 -10.5937 80.7458 0.906425 19.7402 11.6017 -16.5259 13.0916 3.13439 2.45222 -20.349 -4.06173 
99.4886 95.4264 -4.54663 70.7935 -30.4412 -10.233 -70.1915 0 88.8779 60.9506 69.5063 23.1299 7.33763 20.6422 2.01982 -123.75 33.0831 157.45 177.021 76.4949 -148.531 0.359751 -15.9113 -21.6833 -59.233 35.7199 -136.466 30.5201 -7.91913 -102.419 0.420956 0.000576806 0.35866 -1.40932 6.16378 37.5489 -120.625 -14.3923 95.3075 9.30821 -2.94828 72.5573 1.50414 0.0266073 1.34896 -56.8869 6.52005 101.572 -1.12405 33.798 2.6843 -3.7704 -16.7757 -1.50914 1.61411 -5.2286 5.47344 -46.7284 -10.6428 80.7039 1.00506 19.8298 12.3325 -16.7783 13.3232 3.21058 2.50581 -20.9737 -4.19585 
99.6165 95.294 -4.71768 70.4711 -31.246 -10.5581 -70.1915 0 88.8779 61.9869 69.8329 22.4047 6.98848 20.7972 2.24057 -124.664 33.235 157.88 178.056 76.4838 -149.651 0.390839 -15.7666 -21.4119 -59.8228 35.3916 -136.331 30.2018 -7.77863 -102.356 0.420956 0.000576806 0.35866 -1.42529 6.20311 37.6575 -119.749 -15.1692 95.6316 9.54071 -3.04587 72.4295 1.49985 0.0266027 1.32884 -56.6443 6.73136 102.215 -1.07838 34.4783 3.33242 -4.07777 -17.5842 -1.61275 1.70594 -5.06115 4.27713 -46.1606 -10.5585 80.8304 0.997865 20.2037 12.8027 -16.6435 13.3502 3.17924 2.5483 -21.1863 -3.41272 
